Coordinates
version=1
nRows=16
nColumns=22
inDegrees=yes

Units are S.I. units (second, meters, Newtons, ...)
If the header above contains a line with 'inDegrees', this indicates whether rotational values are in degrees (yes) or radians (no).

endheader
time	pelvis_tilt	pelvis_list	pelvis_rotation	pelvis_tx	pelvis_ty	pelvis_tz	hip_flexion_r	hip_adduction_r	hip_rotation_r	knee_angle_r	ankle_angle_r	subtalar_angle_r	hip_flexion_l	hip_adduction_l	hip_rotation_l	knee_angle_l	ankle_angle_l	subtalar_angle_l	lumbar_extension	lumbar_bending	lumbar_rotation
      1.52000000	      5.94401929	     -3.56073374	      4.27241397	      1.13189676	      0.94413981	     -0.06079358	     -7.33631401	      5.81972489	     -9.86130898	     -8.80034679	     10.79319951	     -1.85501725	     -4.41003818	     -4.36711348	    -12.72841871	    -16.87341438	     22.56089036	     -8.29521225	    -12.70063959	      3.64757171	     -8.31589244
      1.53000000	      5.98299328	     -3.54507668	      4.25517269	      1.13185353	      0.94422540	     -0.06079641	     -7.38938558	      5.80796933	     -9.75482591	     -8.77932961	     10.78524857	     -1.86760994	     -4.47219771	     -4.34170981	    -12.71700811	    -16.83480691	     22.52312996	     -8.35500861	    -12.75284673	      3.63864638	     -8.33087224
      1.54000000	      5.98731041	     -3.54221265	      4.25747626	      1.13181891	      0.94423877	     -0.06084493	     -7.38945449	      5.80218565	     -9.74850053	     -8.78599003	     10.78371664	     -1.86812686	     -4.47467740	     -4.33573675	    -12.71849336	    -16.83413917	     22.52366754	     -8.35676400	    -12.75602782	      3.65123374	     -8.33792025
      1.55000000	      6.00150986	     -3.53727887	      4.25548787	      1.13175478	      0.94426810	     -0.06084677	     -7.39131069	      5.79796899	     -9.71161298	     -8.80688910	     10.78025482	     -1.86971915	     -4.48842364	     -4.33002474	    -12.71647350	    -16.83008144	     22.52235848	     -8.36508814	    -12.77880981	      3.65552585	     -8.38072835
      1.56000000	      6.01713347	     -3.52807719	      4.25481378	      1.13170440	      0.94429984	     -0.06086481	     -7.40930900	      5.79014732	     -9.66947585	     -8.80137962	     10.78181367	     -1.87185751	     -4.50577902	     -4.31770011	    -12.71159244	    -16.82389890	     22.51616423	     -8.37629155	    -12.80173508	      3.65860524	     -8.41190993
      1.57000000	      6.02021705	     -3.52411024	      4.26019866	      1.13166582	      0.94430888	     -0.06088494	     -7.41132169	      5.78700388	     -9.66349905	     -8.79923267	     10.78198926	     -1.87228676	     -4.50726718	     -4.31274981	    -12.71289320	    -16.82097702	     22.51500957	     -8.37762553	    -12.80568039	      3.66585499	     -8.41289879
      1.58000000	      6.07378461	     -3.50577596	      4.25112592	      1.13165124	      0.94440877	     -0.06087040	     -7.49976108	      5.77810358	     -9.57454590	     -8.74128296	     10.78189899	     -1.88472441	     -4.58880083	     -4.28924532	    -12.70375955	    -16.77893902	     22.47903660	     -8.40619683	    -12.86945597	      3.65519887	     -8.43143832
      1.59000000	      6.07526297	     -3.50338151	      4.24936217	      1.13158241	      0.94441786	     -0.06086996	     -7.49641743	      5.77542423	     -9.57245179	     -8.74089971	     10.78048448	     -1.88530185	     -4.58799507	     -4.28548087	    -12.70583790	    -16.77497849	     22.47870668	     -8.40669549	    -12.87903520	      3.66188670	     -8.43587785
      1.60000000	      6.08853353	     -3.49513425	      4.24301259	      1.13151670	      0.94444762	     -0.06086516	     -7.50410162	      5.76693609	     -9.54818313	     -8.74758284	     10.77212841	     -1.88925119	     -4.60451094	     -4.27485838	    -12.71186267	    -16.76658353	     22.46819458	     -8.41038993	    -12.89923329	      3.66343691	     -8.46649751
      1.61000000	      6.08902389	     -3.49223911	      4.23924335	      1.13143966	      0.94445776	     -0.06085990	     -7.50309929	      5.76395370	     -9.54729066	     -8.73967248	     10.77169325	     -1.88990262	     -4.60245875	     -4.27025445	    -12.71264249	    -16.76248108	     22.46614546	     -8.41075109	    -12.90776778	      3.66769581	     -8.46790243
      1.62000000	      6.10511219	     -3.47036356	      4.23663689	      1.13140759	      0.94450216	     -0.06086053	     -7.53806337	      5.74544175	     -9.50817550	     -8.70509969	     10.75903963	     -1.89833223	     -4.63091591	     -4.24399232	    -12.71618809	    -16.74056000	     22.43619873	     -8.41430237	    -12.92296435	      3.65077007	     -8.50550742
      1.63000000	      6.10695115	     -3.46792070	      4.23667239	      1.13133413	      0.94451917	     -0.06085277	     -7.53806239	      5.74431225	     -9.50661094	     -8.69991520	     10.75825597	     -1.89923219	     -4.63024126	     -4.24130560	    -12.71527107	    -16.73495525	     22.43450573	     -8.41409591	    -12.93076808	      3.65382502	     -8.50504405
      1.64000000	      6.10945549	     -3.46634088	      4.23662566	      1.13128214	      0.94453636	     -0.06083327	     -7.53783566	      5.74467876	     -9.50620946	     -8.69941227	     10.75816616	     -1.89930160	     -4.62981774	     -4.24111542	    -12.71524311	    -16.73426958	     22.43439793	     -8.41405397	    -12.92996609	      3.65426323	     -8.50543196
      1.65000000	      6.14695154	     -3.43510204	      4.24965557	      1.13127308	      0.94462452	     -0.06084878	     -7.62079373	      5.72574499	     -9.42825886	     -8.62104376	     10.73879466	     -1.91650497	     -4.69492673	     -4.20199365	    -12.67568608	    -16.68296295	     22.39823063	     -8.40329160	    -12.96348865	      3.62767063	     -8.55195821
      1.66000000	      6.15954944	     -3.43140397	      4.25069529	      1.13120361	      0.94466253	     -0.06083098	     -7.62831658	      5.72418550	     -9.40776686	     -8.62437435	     10.73383500	     -1.92076145	     -4.71287515	     -4.19928793	    -12.68366553	    -16.66346390	     22.39486337	     -8.40290874	    -12.97596276	      3.62967731	     -8.58522199
      1.67000000	      6.17670876	     -3.41527614	      4.25807913	      1.13114313	      0.94471323	     -0.06081694	     -7.66520414	      5.71631620	     -9.35609661	     -8.58119445	     10.73060080	     -1.92898395	     -4.73560293	     -4.18212556	    -12.67187594	    -16.64511689	     22.38239839	     -8.40272196	    -12.98993226	      3.61621766	     -8.61819252
